<svg xmlns="http://www.w3.org/2000/svg" viewBox="0 0 768 768" fill="none">
  <g transform="translate(84, 144)">
    <!-- Left page -->
    <path d="M300 30 C240 12 48 0 30 18 L30 390 C48 372 240 360 300 378 Z" fill="rgba(200,180,160,0.25)" stroke="rgba(200,180,160,0.55)" stroke-width="3"/>
    <!-- Right page -->
    <path d="M300 30 C360 12 552 0 570 18 L570 390 C552 372 360 360 300 378 Z" fill="rgba(200,180,160,0.2)" stroke="rgba(200,180,160,0.55)" stroke-width="3"/>
    <!-- Spine -->
    <line x1="300" y1="30" x2="300" y2="378" stroke="rgba(200,180,160,0.45)" stroke-width="2.5"/>
    <!-- Left page lines -->
    <line x1="75" y1="90" x2="255" y2="80" stroke="rgba(200,180,160,0.3)" stroke-width="2.5"/>
    <line x1="75" y1="130" x2="255" y2="120" stroke="rgba(200,180,160,0.3)" stroke-width="2.5"/>
    <line x1="75" y1="170" x2="255" y2="160" stroke="rgba(200,180,160,0.3)" stroke-width="2.5"/>
    <line x1="75" y1="210" x2="240" y2="201" stroke="rgba(200,180,160,0.3)" stroke-width="2.5"/>
    <line x1="75" y1="250" x2="220" y2="243" stroke="rgba(200,180,160,0.3)" stroke-width="2.5"/>
    <line x1="75" y1="290" x2="200" y2="284" stroke="rgba(200,180,160,0.3)" stroke-width="2.5"/>
    <line x1="75" y1="330" x2="180" y2="326" stroke="rgba(200,180,160,0.3)" stroke-width="2.5"/>
    <!-- Right page lines -->
    <line x1="345" y1="80" x2="525" y2="90" stroke="rgba(200,180,160,0.3)" stroke-width="2.5"/>
    <line x1="345" y1="120" x2="525" y2="130" stroke="rgba(200,180,160,0.3)" stroke-width="2.5"/>
    <line x1="345" y1="160" x2="525" y2="170" stroke="rgba(200,180,160,0.3)" stroke-width="2.5"/>
    <line x1="345" y1="201" x2="510" y2="210" stroke="rgba(200,180,160,0.3)" stroke-width="2.5"/>
    <line x1="345" y1="243" x2="490" y2="250" stroke="rgba(200,180,160,0.3)" stroke-width="2.5"/>
    <line x1="345" y1="284" x2="470" y2="290" stroke="rgba(200,180,160,0.3)" stroke-width="2.5"/>
  </g>
</svg>
